# Blender 3.3.1
# www.blender.org
mtllib cube.mtl
o Cube
v -1.075169 -0.817165 1.315124
v -1.075169 1.182835 1.315124
v -1.075169 -0.817165 -0.684876
v -1.075169 1.182835 -0.684876
v 0.924831 -0.817165 1.315124
v 0.924831 1.182835 1.315124
v 0.924831 -0.817165 -0.684876
v 0.924831 1.182835 -0.684876
vn -1.0000 -0.0000 -0.0000
vn -0.0000 -0.0000 -1.0000
vn 1.0000 -0.0000 -0.0000
vn -0.0000 -0.0000 1.0000
vn -0.0000 -1.0000 -0.0000
vn -0.0000 1.0000 -0.0000
vt -0.002514 -2.029268
vt -0.002514 2.019238
vt -1.007541 1.007111
vt 1.002514 -2.029268
vt 1.002514 2.019238
vt 2.007540 1.007111
vt -1.007541 -0.005015
vt -0.002514 -1.017141
vt 1.002514 -1.017141
vt 2.007540 -0.005015
vt -0.002514 1.007111
vt 1.002514 1.007111
vt -0.002514 -0.005015
vt 1.002514 -0.005015
s 0
usemtl Material.001
f 2/4/1 3/8/1 1/1/1
f 4/9/2 7/13/2 3/8/2
f 8/14/3 5/11/3 7/13/3
f 6/12/4 1/2/4 5/11/4
f 7/13/5 1/3/5 3/7/5
f 4/10/6 6/12/6 8/14/6
f 2/4/1 4/9/1 3/8/1
f 4/9/2 8/14/2 7/13/2
f 8/14/3 6/12/3 5/11/3
f 6/12/4 2/5/4 1/2/4
f 7/13/5 5/11/5 1/3/5
f 4/10/6 2/6/6 6/12/6
